<svg xmlns="http://www.w3.org/2000/svg" width="920" height="300" viewBox="0 0 920 300" role="img" aria-label="Recent 14 day commit activity">
  <rect width="100%" height="100%" rx="8" fill="#fffdfa"/>
  <text x="46" y="25" fill="#182026" font-size="16" font-weight="700">Recent 14-day public commit activity · 32 commits</text>
  <line x1="46" y1="30.0" x2="888" y2="30.0" stroke="rgba(24,32,38,.10)" stroke-width="1"/>
<line x1="46" y1="86.0" x2="888" y2="86.0" stroke="rgba(24,32,38,.10)" stroke-width="1"/>
<line x1="46" y1="142.0" x2="888" y2="142.0" stroke="rgba(24,32,38,.10)" stroke-width="1"/>
<line x1="46" y1="198.0" x2="888" y2="198.0" stroke="rgba(24,32,38,.10)" stroke-width="1"/>
<line x1="46" y1="254.0" x2="888" y2="254.0" stroke="rgba(24,32,38,.10)" stroke-width="1"/>
  <line x1="46" y1="254.0" x2="888" y2="254.0" stroke="rgba(24,32,38,.18)" stroke-width="1"/>
  <path d="M46.0,254.0 L110.8,30.0 L175.5,222.0 L240.3,254.0 L305.1,222.0 L369.8,254.0 L434.6,158.0 L499.4,254.0 L564.2,158.0 L628.9,222.0 L693.7,62.0 L758.5,222.0 L823.2,30.0 L888.0,190.0 L888.0,254.0 L46.0,254.0 Z" fill="rgba(47,125,123,.12)"/>
  <path d="M46.0,254.0 L110.8,30.0 L175.5,222.0 L240.3,254.0 L305.1,222.0 L369.8,254.0 L434.6,158.0 L499.4,254.0 L564.2,158.0 L628.9,222.0 L693.7,62.0 L758.5,222.0 L823.2,30.0 L888.0,190.0" fill="none" stroke="#2f7d7b" stroke-width="4" stroke-linecap="round" stroke-linejoin="round"/>
  <circle cx="46.0" cy="254.0" r="5" fill="#fffdfa" stroke="#2f7d7b" stroke-width="3"/>
<circle cx="110.8" cy="30.0" r="5" fill="#fffdfa" stroke="#2f7d7b" stroke-width="3"/><text x="110.8" y="18.0" text-anchor="middle" fill="#182026" font-size="12" font-weight="700">7</text>
<circle cx="175.5" cy="222.0" r="5" fill="#fffdfa" stroke="#2f7d7b" stroke-width="3"/><text x="175.5" y="210.0" text-anchor="middle" fill="#182026" font-size="12" font-weight="700">1</text>
<circle cx="240.3" cy="254.0" r="5" fill="#fffdfa" stroke="#2f7d7b" stroke-width="3"/>
<circle cx="305.1" cy="222.0" r="5" fill="#fffdfa" stroke="#2f7d7b" stroke-width="3"/><text x="305.1" y="210.0" text-anchor="middle" fill="#182026" font-size="12" font-weight="700">1</text>
<circle cx="369.8" cy="254.0" r="5" fill="#fffdfa" stroke="#2f7d7b" stroke-width="3"/>
<circle cx="434.6" cy="158.0" r="5" fill="#fffdfa" stroke="#2f7d7b" stroke-width="3"/><text x="434.6" y="146.0" text-anchor="middle" fill="#182026" font-size="12" font-weight="700">3</text>
<circle cx="499.4" cy="254.0" r="5" fill="#fffdfa" stroke="#2f7d7b" stroke-width="3"/>
<circle cx="564.2" cy="158.0" r="5" fill="#fffdfa" stroke="#2f7d7b" stroke-width="3"/><text x="564.2" y="146.0" text-anchor="middle" fill="#182026" font-size="12" font-weight="700">3</text>
<circle cx="628.9" cy="222.0" r="5" fill="#fffdfa" stroke="#2f7d7b" stroke-width="3"/><text x="628.9" y="210.0" text-anchor="middle" fill="#182026" font-size="12" font-weight="700">1</text>
<circle cx="693.7" cy="62.0" r="5" fill="#fffdfa" stroke="#2f7d7b" stroke-width="3"/><text x="693.7" y="50.0" text-anchor="middle" fill="#182026" font-size="12" font-weight="700">6</text>
<circle cx="758.5" cy="222.0" r="5" fill="#fffdfa" stroke="#2f7d7b" stroke-width="3"/><text x="758.5" y="210.0" text-anchor="middle" fill="#182026" font-size="12" font-weight="700">1</text>
<circle cx="823.2" cy="30.0" r="5" fill="#fffdfa" stroke="#2f7d7b" stroke-width="3"/><text x="823.2" y="18.0" text-anchor="middle" fill="#182026" font-size="12" font-weight="700">7</text>
<circle cx="888.0" cy="190.0" r="5" fill="#fffdfa" stroke="#2f7d7b" stroke-width="3"/><text x="888.0" y="178.0" text-anchor="middle" fill="#182026" font-size="12" font-weight="700">2</text>
  <text x="46.0" y="286" text-anchor="middle" fill="#66727d" font-size="12" font-weight="700">6/20</text>
<text x="240.3" y="286" text-anchor="middle" fill="#66727d" font-size="12" font-weight="700">6/23</text>
<text x="434.6" y="286" text-anchor="middle" fill="#66727d" font-size="12" font-weight="700">6/26</text>
<text x="628.9" y="286" text-anchor="middle" fill="#66727d" font-size="12" font-weight="700">6/29</text>
<text x="823.2" y="286" text-anchor="middle" fill="#66727d" font-size="12" font-weight="700">7/2</text>
<text x="888.0" y="286" text-anchor="middle" fill="#66727d" font-size="12" font-weight="700">7/3</text>
</svg>
