<svg xmlns="http://www.w3.org/2000/svg" width="1200" height="360" viewBox="0 0 1200 360" role="img" aria-label="Recent 14 day commit activity">
  <rect width="100%" height="100%" rx="24" fill="#050505"/>
  <text x="70" y="42" fill="#f5f5f5" font-size="20" font-weight="900" letter-spacing="3">PUBLIC COMMIT TRAJECTORY</text>
  <text x="70" y="66" fill="#7b7b7b" font-size="14" font-weight="700">38 commits over the last 14 days</text>
  <line x1="70" y1="72.0" x2="1130" y2="72.0" stroke="#252525" stroke-width="1"/>
<line x1="70" y1="128.5" x2="1130" y2="128.5" stroke="#252525" stroke-width="1"/>
<line x1="70" y1="185.0" x2="1130" y2="185.0" stroke="#252525" stroke-width="1"/>
<line x1="70" y1="241.5" x2="1130" y2="241.5" stroke="#252525" stroke-width="1"/>
<line x1="70" y1="298.0" x2="1130" y2="298.0" stroke="#252525" stroke-width="1"/>
  <line x1="70" y1="298.0" x2="1130" y2="298.0" stroke="#333" stroke-width="1"/>
  <path d="M70.0,298.0 L151.5,265.7 L233.1,298.0 L314.6,201.1 L396.2,298.0 L477.7,201.1 L559.2,265.7 L640.8,104.3 L722.3,265.7 L803.8,72.0 L885.4,72.0 L966.9,168.9 L1048.5,168.9 L1130.0,265.7 L1130.0,298.0 L70.0,298.0 Z" fill="#e82127" opacity=".12"/>
  <path d="M70.0,298.0 L151.5,265.7 L233.1,298.0 L314.6,201.1 L396.2,298.0 L477.7,201.1 L559.2,265.7 L640.8,104.3 L722.3,265.7 L803.8,72.0 L885.4,72.0 L966.9,168.9 L1048.5,168.9 L1130.0,265.7" fill="none" stroke="#e82127" stroke-width="5" stroke-linecap="round" stroke-linejoin="round"/>
  <circle cx="70.0" cy="298.0" r="5" fill="#050505" stroke="#e82127" stroke-width="3"/>
<circle cx="151.5" cy="265.7" r="5" fill="#050505" stroke="#e82127" stroke-width="3"/><text x="151.5" y="251.7" text-anchor="middle" fill="#f5f5f5" font-size="12" font-weight="700">1</text>
<circle cx="233.1" cy="298.0" r="5" fill="#050505" stroke="#e82127" stroke-width="3"/>
<circle cx="314.6" cy="201.1" r="5" fill="#050505" stroke="#e82127" stroke-width="3"/><text x="314.6" y="187.1" text-anchor="middle" fill="#f5f5f5" font-size="12" font-weight="700">3</text>
<circle cx="396.2" cy="298.0" r="5" fill="#050505" stroke="#e82127" stroke-width="3"/>
<circle cx="477.7" cy="201.1" r="5" fill="#050505" stroke="#e82127" stroke-width="3"/><text x="477.7" y="187.1" text-anchor="middle" fill="#f5f5f5" font-size="12" font-weight="700">3</text>
<circle cx="559.2" cy="265.7" r="5" fill="#050505" stroke="#e82127" stroke-width="3"/><text x="559.2" y="251.7" text-anchor="middle" fill="#f5f5f5" font-size="12" font-weight="700">1</text>
<circle cx="640.8" cy="104.3" r="5" fill="#050505" stroke="#e82127" stroke-width="3"/><text x="640.8" y="90.3" text-anchor="middle" fill="#f5f5f5" font-size="12" font-weight="700">6</text>
<circle cx="722.3" cy="265.7" r="5" fill="#050505" stroke="#e82127" stroke-width="3"/><text x="722.3" y="251.7" text-anchor="middle" fill="#f5f5f5" font-size="12" font-weight="700">1</text>
<circle cx="803.8" cy="72.0" r="5" fill="#050505" stroke="#e82127" stroke-width="3"/><text x="803.8" y="58.0" text-anchor="middle" fill="#f5f5f5" font-size="12" font-weight="700">7</text>
<circle cx="885.4" cy="72.0" r="5" fill="#050505" stroke="#e82127" stroke-width="3"/><text x="885.4" y="58.0" text-anchor="middle" fill="#f5f5f5" font-size="12" font-weight="700">7</text>
<circle cx="966.9" cy="168.9" r="5" fill="#050505" stroke="#e82127" stroke-width="3"/><text x="966.9" y="154.9" text-anchor="middle" fill="#f5f5f5" font-size="12" font-weight="700">4</text>
<circle cx="1048.5" cy="168.9" r="5" fill="#050505" stroke="#e82127" stroke-width="3"/><text x="1048.5" y="154.9" text-anchor="middle" fill="#f5f5f5" font-size="12" font-weight="700">4</text>
<circle cx="1130.0" cy="265.7" r="5" fill="#050505" stroke="#e82127" stroke-width="3"/><text x="1130.0" y="251.7" text-anchor="middle" fill="#f5f5f5" font-size="12" font-weight="700">1</text>
  <text x="70.0" y="336" text-anchor="middle" fill="#777" font-size="12" font-weight="700">6/23</text>
<text x="314.6" y="336" text-anchor="middle" fill="#777" font-size="12" font-weight="700">6/26</text>
<text x="559.2" y="336" text-anchor="middle" fill="#777" font-size="12" font-weight="700">6/29</text>
<text x="803.8" y="336" text-anchor="middle" fill="#777" font-size="12" font-weight="700">7/2</text>
<text x="1048.5" y="336" text-anchor="middle" fill="#777" font-size="12" font-weight="700">7/5</text>
<text x="1130.0" y="336" text-anchor="middle" fill="#777" font-size="12" font-weight="700">7/6</text>
</svg>
