<svg xmlns="http://www.w3.org/2000/svg" width="1200" height="360" viewBox="0 0 1200 360" role="img" aria-label="Recent 14 day commit activity">
  <rect width="100%" height="100%" rx="24" fill="#050505"/>
  <text x="70" y="42" fill="#f5f5f5" font-size="20" font-weight="900" letter-spacing="3">PUBLIC COMMIT TRAJECTORY</text>
  <text x="70" y="66" fill="#7b7b7b" font-size="14" font-weight="700">70 commits over the last 14 days</text>
  <line x1="70" y1="72.0" x2="1130" y2="72.0" stroke="#252525" stroke-width="1"/>
<line x1="70" y1="128.5" x2="1130" y2="128.5" stroke="#252525" stroke-width="1"/>
<line x1="70" y1="185.0" x2="1130" y2="185.0" stroke="#252525" stroke-width="1"/>
<line x1="70" y1="241.5" x2="1130" y2="241.5" stroke="#252525" stroke-width="1"/>
<line x1="70" y1="298.0" x2="1130" y2="298.0" stroke="#252525" stroke-width="1"/>
  <line x1="70" y1="298.0" x2="1130" y2="298.0" stroke="#333" stroke-width="1"/>
  <path d="M70.0,197.6 L151.5,197.6 L233.1,197.6 L314.6,197.6 L396.2,197.6 L477.7,197.6 L559.2,197.6 L640.8,72.0 L722.3,97.1 L803.8,147.3 L885.4,97.1 L966.9,197.6 L1048.5,172.4 L1130.0,247.8 L1130.0,298.0 L70.0,298.0 Z" fill="#e82127" opacity=".12"/>
  <path d="M70.0,197.6 L151.5,197.6 L233.1,197.6 L314.6,197.6 L396.2,197.6 L477.7,197.6 L559.2,197.6 L640.8,72.0 L722.3,97.1 L803.8,147.3 L885.4,97.1 L966.9,197.6 L1048.5,172.4 L1130.0,247.8" fill="none" stroke="#e82127" stroke-width="5" stroke-linecap="round" stroke-linejoin="round"/>
  <circle cx="70.0" cy="197.6" r="5" fill="#050505" stroke="#e82127" stroke-width="3"/><text x="70.0" y="183.6" text-anchor="middle" fill="#f5f5f5" font-size="12" font-weight="700">4</text>
<circle cx="151.5" cy="197.6" r="5" fill="#050505" stroke="#e82127" stroke-width="3"/><text x="151.5" y="183.6" text-anchor="middle" fill="#f5f5f5" font-size="12" font-weight="700">4</text>
<circle cx="233.1" cy="197.6" r="5" fill="#050505" stroke="#e82127" stroke-width="3"/><text x="233.1" y="183.6" text-anchor="middle" fill="#f5f5f5" font-size="12" font-weight="700">4</text>
<circle cx="314.6" cy="197.6" r="5" fill="#050505" stroke="#e82127" stroke-width="3"/><text x="314.6" y="183.6" text-anchor="middle" fill="#f5f5f5" font-size="12" font-weight="700">4</text>
<circle cx="396.2" cy="197.6" r="5" fill="#050505" stroke="#e82127" stroke-width="3"/><text x="396.2" y="183.6" text-anchor="middle" fill="#f5f5f5" font-size="12" font-weight="700">4</text>
<circle cx="477.7" cy="197.6" r="5" fill="#050505" stroke="#e82127" stroke-width="3"/><text x="477.7" y="183.6" text-anchor="middle" fill="#f5f5f5" font-size="12" font-weight="700">4</text>
<circle cx="559.2" cy="197.6" r="5" fill="#050505" stroke="#e82127" stroke-width="3"/><text x="559.2" y="183.6" text-anchor="middle" fill="#f5f5f5" font-size="12" font-weight="700">4</text>
<circle cx="640.8" cy="72.0" r="5" fill="#050505" stroke="#e82127" stroke-width="3"/><text x="640.8" y="58.0" text-anchor="middle" fill="#f5f5f5" font-size="12" font-weight="700">9</text>
<circle cx="722.3" cy="97.1" r="5" fill="#050505" stroke="#e82127" stroke-width="3"/><text x="722.3" y="83.1" text-anchor="middle" fill="#f5f5f5" font-size="12" font-weight="700">8</text>
<circle cx="803.8" cy="147.3" r="5" fill="#050505" stroke="#e82127" stroke-width="3"/><text x="803.8" y="133.3" text-anchor="middle" fill="#f5f5f5" font-size="12" font-weight="700">6</text>
<circle cx="885.4" cy="97.1" r="5" fill="#050505" stroke="#e82127" stroke-width="3"/><text x="885.4" y="83.1" text-anchor="middle" fill="#f5f5f5" font-size="12" font-weight="700">8</text>
<circle cx="966.9" cy="197.6" r="5" fill="#050505" stroke="#e82127" stroke-width="3"/><text x="966.9" y="183.6" text-anchor="middle" fill="#f5f5f5" font-size="12" font-weight="700">4</text>
<circle cx="1048.5" cy="172.4" r="5" fill="#050505" stroke="#e82127" stroke-width="3"/><text x="1048.5" y="158.4" text-anchor="middle" fill="#f5f5f5" font-size="12" font-weight="700">5</text>
<circle cx="1130.0" cy="247.8" r="5" fill="#050505" stroke="#e82127" stroke-width="3"/><text x="1130.0" y="233.8" text-anchor="middle" fill="#f5f5f5" font-size="12" font-weight="700">2</text>
  <text x="70.0" y="336" text-anchor="middle" fill="#777" font-size="12" font-weight="700">7/6</text>
<text x="314.6" y="336" text-anchor="middle" fill="#777" font-size="12" font-weight="700">7/9</text>
<text x="559.2" y="336" text-anchor="middle" fill="#777" font-size="12" font-weight="700">7/12</text>
<text x="803.8" y="336" text-anchor="middle" fill="#777" font-size="12" font-weight="700">7/15</text>
<text x="1048.5" y="336" text-anchor="middle" fill="#777" font-size="12" font-weight="700">7/18</text>
<text x="1130.0" y="336" text-anchor="middle" fill="#777" font-size="12" font-weight="700">7/19</text>
</svg>
